<svg width="2117" height="1729" viewBox="0 0 2117 1729" fill="none" xmlns="http://www.w3.org/2000/svg">
<rect width="2117" height="1729" fill="#B5B5B5"/>
<path d="M1035.5 1464.5H991.5V1467.5L997 1641.5L1141.5 1632L1137.5 1562H1109.5V1418L1035.5 1421.5V1464.5Z" fill="#EAEAEA" stroke="black"/>
<path d="M1662.5 898V862H1945V1089.5H1662.5V1004H1622V907.5H1633V898H1662.5Z" fill="#EAEAEA" stroke="black"/>
<path d="M454 351.5L151.5 373.5L173.5 626.5L481.5 599.5V563H510.5L499.5 430H463.5L454 351.5Z" fill="#EAEAEA" stroke="black"/>
<rect x="1269.08" y="1313.68" width="324.637" height="83.5901" transform="rotate(1 1269.08 1313.68)" fill="#F5F5F5"/>
<rect x="1580.69" y="1362" width="226.438" height="39.2686" transform="rotate(1 1580.69 1362)" fill="#F5F5F5"/>
<rect x="1718.69" y="1375" width="88.1136" height="39.2686" transform="rotate(1 1718.69 1375)" fill="#F5F5F5"/>
<rect x="1577.78" y="1272.53" width="74.3692" height="92.2208" transform="rotate(0.549391 1577.78 1272.53)" fill="#F5F5F5"/>
<rect x="1580.88" y="1011" width="74.3692" height="79.6534" transform="rotate(0.549391 1580.88 1011)" fill="#F5F5F5"/>
<rect x="1585.9" y="736.049" width="69.2281" height="91.4741" transform="rotate(0.549391 1585.9 736.049)" fill="#F5F5F5"/>
<rect x="1587.88" y="534" width="69.2281" height="56.0554" transform="rotate(0.549391 1587.88 534)" fill="#F5F5F5"/>
<rect x="1595.6" y="343.995" width="62.2328" height="70.5689" transform="rotate(0.549391 1595.6 343.995)" fill="#F5F5F5"/>
<rect x="876.161" y="1327.84" width="407.42" height="84.8052" transform="rotate(-2 876.161 1327.84)" fill="#F5F5F5"/>
<rect x="908.517" y="572.571" width="68.4814" height="72.3807" transform="rotate(-2 908.517 572.571)" fill="#EAEAEA" stroke="black"/>
<rect x="962.517" y="758.907" width="68.4814" height="72.3807" transform="rotate(-2 962.517 758.907)" fill="#EAEAEA" stroke="black"/>
<rect x="1040.52" y="754.907" width="68.4814" height="72.3807" transform="rotate(-2 1040.52 754.907)" fill="#EAEAEA" stroke="black"/>
<rect x="987.517" y="567.907" width="68.4814" height="72.3807" transform="rotate(-2 987.517 567.907)" fill="#EAEAEA" stroke="black"/>
<rect x="1066.52" y="565.907" width="68.4814" height="72.3807" transform="rotate(-2 1066.52 565.907)" fill="#EAEAEA" stroke="black"/>
<rect x="1147.52" y="563.907" width="68.4814" height="72.3807" transform="rotate(-2 1147.52 563.907)" fill="#EAEAEA" stroke="black"/>
<rect x="221.252" y="1521.49" width="261.87" height="105.662" transform="rotate(-6 221.252 1521.49)" fill="#EAEAEA" stroke="black"/>
<rect x="1718.55" y="1422.85" width="243.011" height="100.627" transform="rotate(1.3145 1718.55 1422.85)" fill="#EAEAEA" stroke="black"/>
<path d="M1132.09 1415.76L1118 1415.94L1119.79 1555.93L1193.78 1554.99L1191.99 1415L1178.91 1415.17L1179.31 1446.8L1132.5 1447.39L1132.09 1415.76Z" fill="#757575" stroke="black"/>
<path d="M505.5 617L171 645.5L191 899L501 867.5L492.5 779.5L520 775.5L505.5 617Z" fill="#EAEAEA" stroke="black"/>
<path d="M461.5 102L130 118.5L148 364.5L481.5 337L461.5 102Z" fill="#EAEAEA" stroke="black"/>
<path d="M1959 360.573L1663.5 352V421.538H1627V530.608H1663.5V583H1959V360.573Z" fill="#EAEAEA" stroke="black"/>
<path d="M1947 596H1644.5V626.876H1630V730.46H1659V845H1947V596Z" fill="#EAEAEA" stroke="black"/>
<path d="M1945 1098.5H1624V1173.5H1658.5V1235.5H1624V1262.5H1658.5V1346.5H1945V1098.5Z" fill="#EAEAEA" stroke="black"/>
<rect x="860.228" y="662.263" width="78.1821" height="297.305" transform="rotate(87.8227 860.228 662.263)" fill="#F5F5F5"/>
<rect x="1605.89" y="637" width="76.3654" height="737.418" transform="rotate(87.8227 1605.89 637)" fill="#F5F5F5"/>
<path d="M1952 98.5L1646 80V333.5L1952 342.5V98.5Z" fill="#EAEAEA" stroke="black"/>
<path d="M1193.46 325.793L920.034 338.12V422.44H898V543.249H920.034V561L1219 543.249V311H1193.46V325.793Z" fill="#EAEAEA" stroke="black"/>
<rect x="829" y="113.288" width="35.1003" height="1268.9" transform="rotate(-2.02245 829 113.288)" fill="#F5F5F5"/>
<rect x="1594.02" y="79.1265" width="30.3303" height="1321.54" transform="rotate(0.806692 1594.02 79.1265)" fill="#F5F5F5"/>
<rect x="489.452" y="183.315" width="36.4961" height="1241.96" transform="rotate(-5.17643 489.452 183.315)" fill="#F5F5F5"/>
<rect x="886.144" y="1334" width="78.5722" height="264.023" transform="rotate(83.1593 886.144 1334)" fill="#F5F5F5"/>
<rect x="588.341" y="1045.37" width="80.6745" height="67.8234" transform="rotate(83.1593 588.341 1045.37)" fill="#F5F5F5"/>
<rect x="615.635" y="1328.87" width="88.3126" height="67.8234" transform="rotate(84.8574 615.635 1328.87)" fill="#F5F5F5"/>
<rect x="526.241" y="1430.66" width="49.5582" height="156.397" transform="rotate(84.8574 526.241 1430.66)" fill="#F5F5F5"/>
<rect x="568.514" y="778" width="109.895" height="67.8234" transform="rotate(84.5254 568.514 778)" fill="#F5F5F5"/>
<rect x="529.514" y="343" width="74.0828" height="67.8234" transform="rotate(84.5254 529.514 343)" fill="#F5F5F5"/>
<rect x="637.868" y="1408.95" width="46.6559" height="272.81" transform="rotate(83.1593 637.868 1408.95)" fill="#F5F5F5"/>
<rect x="217.757" y="1456.66" width="143.256" height="54.8431" transform="rotate(-6 217.757 1456.66)" fill="#898989" stroke="black"/>
<rect x="1813.41" y="1364.99" width="129.962" height="50.1821" transform="rotate(1 1813.41 1364.99)" fill="#757575" stroke="black"/>
<path d="M944.5 966V1050H917L926 1300.5L1250.5 1287L1237.5 956.5L944.5 966Z" fill="#EAEAEA" stroke="black"/>
<path d="M1211.5 291L1204 110.5L876 120L879 278.5H920V330.5L1187.5 321V291H1211.5Z" fill="#EAEAEA" stroke="black"/>
<path d="M498 882L192.5 913.5L208.5 1161L521.5 1126.5L514.5 1049.5L547.5 1045.5L541 973.5L507.5 978L498 882Z" fill="#EAEAEA" stroke="black"/>
<path d="M230.5 1447.5L211 1182L565 1141L581.5 1327L543.5 1331L549 1411.5L230.5 1447.5Z" fill="#EAEAEA" stroke="black"/>
<path d="M603 1478L572.5 1481L581 1588.5L649.5 1578.5L640 1462.5L603 1467V1478Z" fill="#757575" stroke="black"/>
<path d="M533 1495.5L501.5 1500L507.5 1596L573.5 1588L564 1484L533 1487.5V1495.5Z" fill="#757575" stroke="black"/>
<path d="M866.5 1486.5L871 1614H881.5V1647L990 1641.5L982 1460H961.5V1416L886 1420.5V1437H877V1486.5H866.5Z" fill="#EAEAEA" stroke="black"/>
<path d="M1262.5 1623.5L1151 1630V1568L1203 1565V1558V1408.5H1246.5V1421H1258V1464H1268.5L1273 1592.5H1262.5V1623.5Z" fill="#757575" stroke="black"/>
<path d="M1573 1514V1411H1604V1431.5H1628.5V1514H1573Z" fill="#757575"/>
<path d="M1669.5 1431.5H1647.5V1523.5H1702V1411H1669.5V1431.5Z" fill="#757575"/>
<path d="M1573 1514V1411H1604V1431.5H1628.5V1514H1573Z" stroke="black"/>
<path d="M1669.5 1431.5H1647.5V1523.5H1702V1411H1669.5V1431.5Z" stroke="black"/>
<path d="M940.5 752H898.5L904 891H915.5V949L1254 936.5L1248.5 752H1237H1188V792.5H1160V839.5L946.5 846.5L940.5 752Z" fill="#EAEAEA" stroke="black"/>
</svg>
